{"title":"Captain America Civil War (2016) HQ 1080p Blu-ray x264 DTS-HD 7.","uid":15728146,"size":18316020336,"categoryP":"video","categoryS":"hd___movies","magnet":"?xt=urn:btih:f8905fcf4ae09c85bef92b150c2a4e9d44093d0d&amp;dn=Captain+America+Civil+War+%282016%29+HQ+1080p+Blu-ray+x264+DTS-HD+7.&amp;tr=udp%3A%2F%2Ftracker.leechers-paradise.org%3A6969&amp;tr=udp%3A%2F%2Fzer0day.ch%3A1337&amp;tr=udp%3A%2F%2Fopen.demonii.com%3A1337&amp;tr=udp%3A%2F%2Ftracker.coppersurfer.tk%3A6969&amp;tr=udp%3A%2F%2Fexodus.desync.com%3A6969","seeders":32,"leechers":19,"uploader":"SaM","files":3,"time":1472745965,"description":"- HollyWooD Movie-\r\n\r\nCaptain America\r\n- CiVil War -\r\n** 2016 **\r\nHQ 1080p / Blu-ray / x264\r\nEnglish DTS-HD-MA 7.1\r\nEnglish, French &amp; Dutch Subs\r\n\r\nForced &amp; Hearing Impaired subs included\r\n \nhttp://extraimago.com/image/wyzC \nhttp://extraimago.com/image/wyzB \nhttp://extraimago.com/image/wyz4 \nhttp://extraimago.com/image/wyze \nhttp://extraimago.com/image/wyzZ \nhttp://extraimago.com/image/wyzK \nhttp://extraimago.com/image/wyzJ \nhttp://extraimago.com/image/wyz0 \nhttp://extraimago.com/image/wyzz \nhttp://extraimago.com/image/wyzU \nhttp://extraimago.com/image/wyzM \nhttp://extraimago.com/image/wyz9 \nhttp://extraimago.com/image/wyzP \nhttp://extraimago.com/image/wyzG \nhttp://extraimago.com/image/wyzr \nhttp://extraimago.com/image/wyzp \nhttp://extraimago.com/image/wyzY\r\n\r\nSOURCE: BD50 @ HDT\r\n\r\nFile size : 17.0 GiB\r\nDuration : 2 h 27 min\r\nOverall bit rate : 16.4 Mb/s\r\n\r\nVideo\r\nFormat : AVC\r\nFormat/Info : Advanced Video Codec\r\nFormat profile :   \r\nFormat settings, CABAC : Yes\r\nFormat settings, ReFrames : 5 frames\r\nCodec ID : V_MPEG4/ISO/AVC\r\nDuration : 2 h 27 min\r\nBit rate : 11.7 Mb/s\r\nWidth : 1 920 pixels\r\nHeight : 800 pixels\r\nDisplay aspect ratio : 2.40:1\r\nFrame rate mode : Constant\r\nFrame rate : 23.976 (24000/1001) FPS\r\ncolor space : YUV\r\nChroma subsampling : 4:2:0\r\nBit depth : 8 bits\r\nScan type : Progressive\r\nBits/(Pixel*Frame) : 0.318\r\nStream size : 12.1 GiB (71%)\r\n\r\nAudio\r\nFormat : DTS\r\nFormat/Info : Digital Theater Systems\r\nFormat profile : MA / Core\r\nMode : 16\r\nFormat settings, Endianness : Big\r\nCodec ID : A_DTS\r\nDuration : 2 h 27 min\r\nBit rate mode : Variable / Constant\r\nBit rate : 4 699 kb/s / 1 509 kb/s\r\nChannel(s) : 8 channels / 6 channels\r\nChannel positions : Front: L C R, Side: L R, Back: L R, LFE / Front: L C R, Side: L R, LFE\r\nSampling rate : 48.0 kHz\r\nFrame rate : 93.750 FPS (512 spf)\r\nBit depth : 24 bits\r\nCompression mode : Lossless / Lossy\r\nStream size : 4.85 GiB (29%)\r\nLanguage : English\r\nDefault : Yes\r\nForced : No\r\n\r\nChapters = Yes\r\nSample : Included","torrent":{"xt":"urn:btih:f8905fcf4ae09c85bef92b150c2a4e9d44093d0d","amp;dn":"Captain+America+Civil+War+%282016%29+HQ+1080p+Blu-ray+x264+DTS-HD+7.","amp;tr":["udp%3A%2F%2Ftracker.leechers-paradise.org%3A6969","udp%3A%2F%2Fzer0day.ch%3A1337","udp%3A%2F%2Fopen.demonii.com%3A1337","udp%3A%2F%2Ftracker.coppersurfer.tk%3A6969","udp%3A%2F%2Fexodus.desync.com%3A6969"],"infoHash":"f8905fcf4ae09c85bef92b150c2a4e9d44093d0d","infoHashBuffer":{"type":"Buffer","data":[248,144,95,207,74,224,156,133,190,249,43,21,12,42,78,157,68,9,61,13]},"announce":[],"urlList":[]}}